<svg t="1685548156197" class="icon" viewBox="0 0 1024 1024" version="1.1" xmlns="http://www.w3.org/2000/svg" p-id="41957" width="200" height="200"><path d="M426.666667 128H170.666667a42.666667 42.666667 0 0 0-42.666667 42.666667v256a42.666667 42.666667 0 0 0 42.666667 42.666666h256a42.666667 42.666667 0 0 0 42.666666-42.666666V170.666667a42.666667 42.666667 0 0 0-42.666666-42.666667z m426.666666 426.666667h-256a42.666667 42.666667 0 0 0-42.666666 42.666666v256a42.666667 42.666667 0 0 0 42.666666 42.666667h256a42.666667 42.666667 0 0 0 42.666667-42.666667v-256a42.666667 42.666667 0 0 0-42.666667-42.666666zM725.333333 128c-94.122667 0-170.666667 76.544-170.666666 170.666667s76.544 170.666667 170.666666 170.666666 170.666667-76.544 170.666667-170.666666-76.544-170.666667-170.666667-170.666667zM298.666667 554.666667c-94.122667 0-170.666667 76.544-170.666667 170.666666s76.544 170.666667 170.666667 170.666667 170.666667-76.544 170.666666-170.666667-76.544-170.666667-170.666666-170.666666z" p-id="41958" fill="currentColor"></path></svg>