<svg t="1685582516965" class="icon" viewBox="0 0 1024 1024" version="1.1" xmlns="http://www.w3.org/2000/svg" p-id="58581" width="200" height="200"><path d="M740.23 957.13c-106.95 0-193.97-87.02-193.97-193.97s87.02-193.97 193.97-193.97S934.2 656.2 934.2 763.15s-87.02 193.98-193.97 193.98z m0-324.78c-72.12 0-130.8 58.69-130.8 130.8s58.69 130.8 130.8 130.8 130.8-58.69 130.8-130.8-58.69-130.8-130.8-130.8z" fill="currentColor" p-id="58582"></path><path d="M508.5 936.85H204.41C141.32 936.85 90 885.53 90 822.46V264.35c0-63.07 51.33-114.39 114.41-114.39h590.52c63.07 0 114.39 51.33 114.39 114.39v255.13c0 17.44-14.15 31.59-31.59 31.59-17.44 0-31.59-14.15-31.59-31.59V264.35c0-28.25-22.97-51.22-51.22-51.22H204.41c-28.25 0-51.24 22.97-51.24 51.22v558.11c0 28.25 22.99 51.22 51.24 51.22H508.5c17.44 0 31.59 14.15 31.59 31.59s-14.15 31.58-31.59 31.58z" fill="currentColor" p-id="58583"></path><path d="M318.5 270.72c-17.44 0-31.59-14.15-31.59-31.59V98.71c0-17.44 14.15-31.59 31.59-31.59s31.59 14.15 31.59 31.59v140.43c-0.01 17.44-14.16 31.58-31.59 31.58zM680.84 270.72c-17.44 0-31.59-14.15-31.59-31.59V98.71c0-17.44 14.15-31.59 31.59-31.59 17.44 0 31.59 14.15 31.59 31.59v140.43c0 17.44-14.15 31.58-31.59 31.58zM777.14 434H222.18c-17.44 0-31.59-14.15-31.59-31.59s14.15-31.59 31.59-31.59h554.96c17.44 0 31.59 14.15 31.59 31.59S794.58 434 777.14 434z" fill="currentColor" p-id="58584"></path><path d="M785.59 796.92h-42.4c-23.61 0-42.81-19.21-42.81-42.83V696.4c0-17.44 14.15-31.59 31.59-31.59 17.44 0 31.59 14.15 31.59 31.59v37.34h22.04c17.44 0 31.59 14.15 31.59 31.59s-14.16 31.59-31.6 31.59z" fill="currentColor" p-id="58585"></path></svg>