<svg t="1685552764557" class="icon" viewBox="0 0 1024 1024" version="1.1" xmlns="http://www.w3.org/2000/svg" p-id="9514" width="200" height="200"><path d="M506.77 960a369.98 369.98 0 0 1-230.35-79.15c-162.04-130.81-187.36-368.2-56.55-530.24 123.14-152.54 342.63-185.28 504.92-75.3l71.31-53.01c17.06-11.57 40.28-7.12 51.85 9.94 10.58 15.6 7.87 36.63-6.31 49.05l-70.19 54.13c-26.55 19.91-63.05 19.91-89.6 0-136.92-94.76-324.74-60.59-419.5 76.33s-60.59 324.74 76.33 419.5c136.92 94.76 324.74 60.59 419.5-76.33 65.22-94.24 71.37-217.31 15.88-317.58-10.68-17.83-4.89-40.94 12.93-51.62 17.83-10.68 40.94-4.89 51.62 12.93 0.27 0.45 0.53 0.9 0.78 1.36 101.47 179.49 38.22 407.25-141.27 508.72a373.31 373.31 0 0 1-142.46 46.05c-16.16 2.76-32.5 4.5-48.89 5.22z m125.81-858.67c0-20.62-16.71-37.33-37.33-37.33H445.91c-20.62 0-37.33 16.71-37.33 37.33s16.71 37.33 37.33 37.33h149.33c20.63 0.01 37.34-16.71 37.34-37.33z m-85.49 511.84c14.47-14.56 14.47-38.08 0-52.64L414.93 428.37c-15.66-13.41-39.23-11.58-52.64 4.08-11.97 13.98-11.97 34.59 0 48.56l132.16 132.16c14.56 14.48 38.08 14.48 52.64 0z" fill="currentColor" p-id="9515"></path></svg>